<?xml version="1.0" standalone="no"?>
<!DOCTYPE svg PUBLIC "-//W3C//DTD SVG 20010904//EN"
 "http://www.w3.org/TR/2001/REC-SVG-20010904/DTD/svg10.dtd">
<svg version="1.0" xmlns="http://www.w3.org/2000/svg"
 width="512.000000pt" height="341.000000pt" viewBox="0 0 512.000000 341.000000"
 preserveAspectRatio="xMidYMid meet">
<metadata>
Created by potrace 1.16, written by Peter Selinger 2001-2019
</metadata>
<g transform="translate(0.000000,341.000000) scale(0.100000,-0.100000)"
fill="#000000" stroke="none">
<path d="M4068 2100 c-20 -5 -23 -13 -26 -59 -5 -91 -6 -91 244 -91 209 0 213
0 228 22 19 27 21 88 3 111 -11 16 -37 18 -219 20 -114 1 -217 0 -230 -3z"/>
<path d="M1163 2014 c-3 -8 -1 -26 5 -40 l12 -24 219 0 c237 0 231 -2 231 56
l0 24 -230 0 c-200 0 -231 -2 -237 -16z"/>
<path d="M951 2006 c-9 -11 -11 -92 -9 -303 l3 -288 27 -50 c35 -67 90 -120
163 -158 54 -28 69 -31 150 -31 77 0 98 3 145 27 30 14 68 38 84 52 l29 25 35
-32 c20 -17 61 -43 92 -57 46 -22 69 -26 140 -26 76 0 93 4 152 33 74 36 133
95 169 170 20 41 23 66 27 195 5 186 0 197 -87 197 -86 0 -91 -9 -91 -160 0
-103 -3 -130 -20 -164 -59 -122 -235 -126 -296 -6 -13 26 -27 80 -33 128 -17
134 -82 227 -199 283 -54 26 -190 38 -234 20 -27 -10 -28 -12 -28 -90 0 -67 3
-82 18 -90 11 -6 24 -6 33 0 23 14 108 10 146 -8 68 -32 107 -125 83 -199 -46
-143 -235 -167 -307 -39 -22 39 -23 49 -23 295 -1 196 -4 259 -14 273 -17 22
-137 25 -155 3z"/>
<path d="M3822 2008 c-9 -9 -12 -86 -12 -285 0 -250 2 -277 21 -327 28 -77 96
-148 177 -188 59 -29 76 -33 152 -33 73 0 93 4 143 28 132 65 201 176 201 322
0 106 -34 185 -111 255 -75 68 -144 93 -251 88 -60 -2 -85 -7 -92 -18 -5 -8
-10 -47 -10 -86 0 -80 13 -104 49 -85 31 17 113 13 151 -8 94 -49 118 -177 48
-257 -62 -70 -138 -84 -215 -39 -79 47 -83 66 -83 355 0 154 -4 259 -10 271
-9 16 -22 19 -78 19 -40 0 -73 -5 -80 -12z"/>
<path d="M3315 1871 c-110 -18 -225 -114 -265 -220 -32 -87 -26 -204 15 -286
59 -115 175 -187 305 -188 41 0 85 5 98 12 20 11 22 19 22 98 l0 86 -37 -8
c-72 -16 -126 -11 -166 14 -75 46 -103 161 -58 235 71 115 246 105 302 -17 16
-37 19 -68 19 -273 0 -165 3 -233 12 -242 7 -7 39 -12 75 -12 97 0 96 -4 91
297 -3 246 -4 248 -31 304 -32 67 -95 132 -157 164 -41 21 -146 47 -174 44 -6
-1 -29 -4 -51 -8z"/>
<path d="M2503 1853 c-22 -4 -23 -9 -23 -100 0 -94 0 -95 23 -88 12 4 47 9 78
12 55 5 103 -10 135 -41 19 -20 42 -69 49 -109 9 -48 -24 -117 -73 -155 -30
-23 -45 -27 -97 -27 -52 0 -68 5 -99 28 -62 48 -70 74 -74 240 l-4 147 -83 0
-84 0 -7 -57 c-4 -31 -4 -108 -1 -171 5 -97 9 -122 33 -170 64 -130 210 -214
349 -199 215 22 362 236 306 445 -28 103 -123 203 -223 236 -47 15 -151 19
-205 9z"/>
<path d="M1755 1632 c-41 -26 -55 -44 -62 -85 -7 -45 18 -97 58 -121 69 -41
165 9 175 90 6 48 -11 81 -55 111 -41 28 -76 29 -116 5z"/>
<path d="M1229 1623 c-30 -18 -59 -71 -59 -107 0 -30 39 -87 70 -104 63 -33
155 16 166 90 16 98 -94 173 -177 121z"/>
<path d="M3324 1631 c-85 -37 -84 -181 1 -217 44 -18 59 -18 101 2 103 49 77
210 -36 220 -25 2 -55 0 -66 -5z"/>
<path d="M4099 1625 c-15 -8 -34 -31 -44 -51 -23 -49 -14 -99 25 -139 58 -58
158 -33 189 48 17 47 8 82 -34 124 -26 26 -41 33 -71 33 -22 -1 -51 -7 -65
-15z"/>
<path d="M2545 1620 c-57 -23 -86 -95 -61 -154 34 -82 132 -98 193 -32 86 94
-14 235 -132 186z"/>
<path d="M677 1614 c-4 -4 -7 -118 -7 -253 0 -295 -1 -291 90 -291 92 0 91 -3
88 296 l-3 249 -80 3 c-45 1 -84 0 -88 -4z"/>
</g>
</svg>
